<svg id="Layer_1" data-name="Layer 1" xmlns="http://www.w3.org/2000/svg" viewBox="0 0 24 24"><defs><style>.cls-1{fill:none;}.cls-2{fill:#fa4851;}</style></defs><title>double_arrow-black-24dp</title><rect class="cls-1" width="24" height="24"/><rect class="cls-1" width="24" height="24"/><path class="cls-2" d="M13.58,19.08l5.65-4A1.82,1.82,0,0,0,20,13.56h0a1.83,1.83,0,0,0-2.89-1.49L13,15,8.89,12.07A1.83,1.83,0,0,0,6,13.56H6a1.83,1.83,0,0,0,.77,1.49l5.65,4A1,1,0,0,0,13.58,19.08Z"/><path class="cls-2" d="M13.58,12.08l5.65-4A1.85,1.85,0,0,0,20,6.56h0a1.83,1.83,0,0,0-2.89-1.49L13,8,8.89,5.07A1.83,1.83,0,0,0,6,6.56H6a1.83,1.83,0,0,0,.77,1.49l5.65,4A1,1,0,0,0,13.58,12.08Z"/></svg>